/* XPM */
static char * exit_xpm[] = {
"32 32 7 1",
" 	c #96C534",
".	c #8AA367",
"+	c #6B8D25",
"@	c #698047",
"#	c #121212",
"$	c #778665",
"%	c #576544",
"                                ",
"          .                     ",
"                        ++      ",
"            @.          ++      ",
"    ++  ++. #.   .  ++ .++ .    ",
"    ++  $$  ##  @.  ++@.+#.     ",
"    ++  $## .# .#     #  @. ++  ",
"    ++  %#@..# .##...## @@ .$+  ",
" .    . ##@#@#@###@###@.#.##@   ",
"       @###################     ",
"      .@################@..     ",
" ...#@@#####################@   ",
"    ######################%$    ",
"     #######################@   ",
"  @########################.    ",
"   ..#####################.     ",
"     @######################@   ",
"    .#####################.  .  ",
"    +######################@    ",
"    ++######################    ",
" ..@#@#####################..   ",
"   @########################@   ",
"    ...###################..    ",
"      .@##################      ",
"     .@#################@#@     ",
"     .#@ .######@@###.. .##     ",
"  ++ .+$  .@#..#..##@    @$+    ",
"  ++  ++  .##  #  #@#.    ++    ",
"  ++  ++      +$  .  .          ",
"  ++  ++     .$$  ..            ",
"                                ",
"                                "};
