/* XPM */
static char * grass_middle_up_xpm[] = {
"32 32 4 1",
" 	c #C8BFE7",
".	c #2F3253",
"+	c #96C534",
"@	c #6B8D25",
"                                ",
"                                ",
"......      ............  ......",
"......      ............  ......",
"++++@@......++++++++@@++..++++++",
"++++@@......++++++++@@++..++++++",
"++++@@++@@++++++++++++++++++@@++",
"++++@@++@@++++++++++++++++++@@++",
"++++++++++++++++++++++++++++++++",
"++++++++++++++++++++++++++++++++",
"++++++++++++++++++++++++++++++++",
"++++++++++++++++++++++++++++++++",
"++++++++++++++++@@++++++++@@++++",
"++++++++++++++++@@++++++++@@++++",
"++++++++@@++++++++++++++++++++++",
"++++++++@@++++++++++++++++++++++",
"++++++++++++++++++++++++++++++++",
"++++++++++++++++++++++++++++++++",
"++++@@++++++++++++++@@++@@++++++",
"++++@@++++++++++++++@@++@@++++++",
"++++++++++++++@@++++@@++@@++++++",
"++++++++++++++@@++++@@++@@++++++",
"++++++++@@++++++++++++++++++++++",
"++++++++@@++++++++++++++++++++++",
"++++++++++++++++++++++++++++++++",
"++++++++++++++++++++++++++++++++",
"++@@++@@++++++++++++++++++@@++++",
"++@@++@@++++++++++++++++++@@++++",
"++@@++@@++++++@@++++++++++++++++",
"++@@++@@++++++@@++++++++++++++++",
"++++++++++++++++++++++++++++++++",
"++++++++++++++++++++++++++++++++"};
