/* XPM */
static char * grass_right_down_xpm[] = {
"32 32 5 1",
" 	c #96C534",
".	c #2F3253",
"+	c #C8BFE7",
"@	c #6B8D25",
"#	c #A36107",
"                            ..++",
"                            ..++",
"  @@@@                      ..++",
"  @@@@                      ..++",
"            @@          @@@@..++",
"            @@          @@@@..++",
"  @@@@                    ..++++",
"  @@@@                    ..++++",
"        @@      @@      @@@@..++",
"        @@      @@      @@@@..++",
"                            ..++",
"                            ..++",
"                            ..++",
"                            ..++",
"  @@      @@                ..++",
"  @@      @@                ..++",
"                  @@      ..++++",
"                  @@      ..++++",
"                            ..++",
"                            ..++",
"          @@@@            @@..++",
"          @@@@            @@..++",
"                            ..++",
"                            ..++",
"          @@@@            @@..++",
"          @@@@            @@..++",
"..  @@  ..      ......    ..++++",
"..  @@  ..      ......    ..++++",
"##......##......######....++++++",
"##......##......######....++++++",
"++++++++++++++++++++++++++++++++",
"++++++++++++++++++++++++++++++++"};
