/* XPM */
static char * grass_middle_down_xpm[] = {
"32 32 4 1",
" 	c #96C534",
".	c #6B8D25",
"+	c #2F3253",
"@	c #C8BFE7",
"                                ",
"                                ",
"                ..      ..  ..  ",
"                ..      ..  ..  ",
"    ..                  ..  ..  ",
"    ..                  ..  ..  ",
"                                ",
"                                ",
"                      ..        ",
"                      ..        ",
"      ..  ..    ..              ",
"      ..  ..    ..              ",
"      ..  ..              ..    ",
"      ..  ..              ..    ",
"                                ",
"                                ",
"                      ..        ",
"                      ..        ",
"    ..        ..                ",
"    ..        ..                ",
"                                ",
"                                ",
"                                ",
"                                ",
"  ..                  ..  ..    ",
"  ..                  ..  ..    ",
"      ++  ..        ++++++..    ",
"      ++  ..        ++++++..    ",
"++++++@@++++++++++++@@@@@@++++++",
"++++++@@++++++++++++@@@@@@++++++",
"@@@@@@@@@@@@@@@@@@@@@@@@@@@@@@@@",
"@@@@@@@@@@@@@@@@@@@@@@@@@@@@@@@@"};
