/* XPM */
static char * grass_middle_xpm[] = {
"32 32 2 1",
" 	c #96C534",
".	c #6B8D25",
"                                ",
"                                ",
"                        ..      ",
"                        ..      ",
"    ..  ..          ..  ..      ",
"    ..  ..          ..  ..      ",
"    ..  ..                  ..  ",
"    ..  ..                  ..  ",
"                                ",
"                                ",
"                                ",
"                                ",
"                ..        ..    ",
"                ..        ..    ",
"        ..                      ",
"        ..                      ",
"                                ",
"                                ",
"    ..              ..  ..      ",
"    ..              ..  ..      ",
"              ..    ..  ..      ",
"              ..    ..  ..      ",
"        ..                      ",
"        ..                      ",
"                                ",
"                                ",
"  ..  ..                  ..    ",
"  ..  ..                  ..    ",
"  ..  ..      ..                ",
"  ..  ..      ..                ",
"                                ",
"                                "};
