/* XPM */
static char * apple_xpm[] = {
"32 32 83 1",
" 	c #96C534",
".	c #92C032",
"+	c #8AB62F",
"@	c #8BB730",
"#	c #93C133",
"$	c #000000",
"%	c #6B8D25",
"&	c #92C033",
"*	c #887611",
"=	c #86B12E",
"-	c #86B02E",
";	c #86B02D",
">	c #8CB830",
",	c #698B24",
"'	c #618021",
")	c #648522",
"!	c #5C7A1F",
"~	c #73BB2E",
"{	c #94C233",
"]	c #5C791F",
"^	c #658522",
"/	c #74BC2E",
"(	c #73BC2E",
"_	c #8EBA31",
":	c #50891C",
"<	c #4C8217",
"[	c #DD1B1B",
"}	c #75BD2F",
"|	c #72BA2E",
"1	c #D6191A",
"2	c #E14141",
"3	c #E03F3F",
"4	c #DE2929",
"5	c #DD1818",
"6	c #DD1919",
"7	c #DE1B1B",
"8	c #DC1B1B",
"9	c #E24343",
"0	c #EE8181",
"a	c #E13F3F",
"b	c #DE1A1A",
"c	c #DE1919",
"d	c #DE1C1C",
"e	c #E24B4B",
"f	c #E55B5B",
"g	c #DD1A1A",
"h	c #2D3E0A",
"i	c #DE1717",
"j	c #E24A4A",
"k	c #E03D3D",
"l	c #79A028",
"m	c #93C233",
"n	c #DD1717",
"o	c #E14444",
"p	c #DF1B1B",
"q	c #DB1B1B",
"r	c #8AB52F",
"s	c #E04040",
"t	c #E66262",
"u	c #EB7676",
"v	c #E14545",
"w	c #E03E3E",
"x	c #E55C5C",
"y	c #E65F5F",
"z	c #E03C3C",
"A	c #DE2A2A",
"B	c #E03B3B",
"C	c #DA1B1B",
"D	c #DC1A1A",
"E	c #8DBA30",
"F	c #8EBB31",
"G	c #638322",
"H	c #8DBA31",
"I	c #6A8B24",
"J	c #628221",
"K	c #698A24",
"L	c #618121",
"M	c #87B22E",
"N	c #94C333",
"O	c #648322",
"P	c #88B32E",
"Q	c #88B32F",
"R	c #8DB930",
"                                ",
"           .+@#                 ",
"           $$$$         %%      ",
"         &$$**$$=----;=>,%      ",
"    %%  %'$$**$$$$$$$$$$)%      ",
"    %%  %!$$***$$~~~~~~$$$->{   ",
"    %%  %]$****$$~~~~~~~$$$$^%  ",
"    %%  %!$$**$$$~~~~/~~~~~$$${ ",
"         $$$**$$$~~~~/(~~~~~$$_ ",
"       &$$$$**$$$:<<~~~~~/~~~$+ ",
"       $$[[$$$$$$<<<<<~~~}|~~$+ ",
"     &$$[[[[[[[[$$$<<<<<~~~~~$+ ",
"     $$[[[[1[[[[[[$$$<<<<<<~~$+ ",
"   .$$[[[[2345678[[[$$$<<<<~~$+ ",
"   $$[[[[900abc77[[[[[$$$$$$$$+ ",
"   $$[[[de00f34gg[[78[[[[[[h$$_ ",
"   $$[[idj0000k66[777[[[[[[$l>m ",
"   $$[[ndj0000o55[[[[[[pq[[$r   ",
"   $$[[ndj0000o55[[[[[7p8[[$+   ",
"   $$[[5dstu00v55[[[[[[pq[[$r   ",
"   $$[[g[[wx00v56[[[[[[pq[[$r   ",
"   $$[[7[5g2tyz66[[[[[[p8[[$r   ",
"   $$[[8766AzB4gg[[[[[[7C[[$r   ",
"   r$$[[[77g667777[[[7[[[[$$_   ",
"   #@$$[[[[g66D888[[[7q[[$$E{   ",
"     +$$[[[[[[[[[[[p7[[[$$F     ",
"  %% mG$$[[[8[[[[[[[q[[$$HI%    ",
"  %%  %J$$[[[[$$$$[[[[$$F %%    ",
"  %%  %K>$$[[$$LM$$[[$$_N       ",
"  %%  %% r$$$$O% P$$$$_         ",
"         #>PQRm  .@PQE{         ",
"                                "};
