/* XPM */
static char * duck_left_xpm[] = {
"32 32 8 1",
" 	c #96C534",
".	c #6B8D25",
"+	c #000000",
"@	c #FFFFFF",
"#	c #EFC01F",
"$	c #EFC01D",
"%	c #F0C01F",
"&	c #373737",
"                                ",
"                                ",
"                        ..      ",
"                        ..      ",
"    ..  ..     +    ..  ..      ",
"    ..  .++++ +     ..  ..      ",
"    ..  +@@@@+              ..  ",
"    ..  +@@@@@+             ..  ",
"   ++  +@@+@@@+                 ",
"  +##+++@@@@@@+                 ",
"  +####$@@@@@@+                 ",
"   +###$@@@@@@+             +   ",
"    ++++@@@@@@+ ..        ..+   ",
"       +@@@@@@+ ..      ++++    ",
"       +@@@@@@@+++++++++@@@+    ",
"       +@@@@@@@@@@@@@@@@@@@+    ",
"       +@@@@@@@@@@++++@@@@@+    ",
"        +@@@@@@@@+@@@@+@@@@+    ",
"    ..  +@@@@@@@@@@@@+@@@@@+    ",
"    ..   +@@@@@@@@@@@@@@@@@+    ",
"         +@@@@@@@@@@@@@@@@@+    ",
"          ++@@@@@@@@@@@@@@+     ",
"        ..  ++@@@@@@@@@+++      ",
"        ..   ++++++++++         ",
"                +%+ +%+         ",
"             &&+%#%++#+         ",
"  ..  ..     &&&+++++#+&& ..    ",
"  ..  ..       &&&+%##%+& ..    ",
"  ..  ..      .. &&++++&&       ",
"  ..  ..      ..    &&&&        ",
"                                ",
"                                "};
