/* XPM */
static char * duck1_xpm[] = {
"32 32 13 1",
" 	c #96C534",
".	c #6B8D25",
"+	c #95C633",
"@	c #000000",
"#	c #94C733",
"$	c #FFFFFF",
"%	c #6B8E25",
"&	c #EFC01F",
"*	c #95C634",
"=	c #EFC01D",
"-	c #93C833",
";	c #F0C01F",
">	c #373737",
"                                ",
"                                ",
"                        ..      ",
"                        ..      ",
"+   ..  ..     @    ..  ..      ",
"#   ..  ..      @ @@@@  ..      ",
"    ..  ..       @$$$$@     %%  ",
"    ..  ..      @$$$$$@     ..  ",
"                @$$$@$$@  @@    ",
"                @$$$$$$@@@&&@   ",
"*               @$$$$$$=&&&&@   ",
"  @      *      @$$$$$$=&&&@   -",
"  @             @$$$$$$@@@@.   *",
"   @@@@         @$$$$$$@  ..    ",
"   @$$$@@@@@@@@@$$$$$$$@        ",
"   @$$$$$$$$$$$$$$$$$$$@        ",
"   @$$$$$@@@@$$$$$$$$$$@        ",
"   @$$$$@$$$$@$$$$$$$$@         ",
"   @$$$$$@$$$$$$$$$$$$@ ..      ",
"   @$$$$$$$$$$$$$$$$$@  ..      ",
"   @$$$$$$$$$$$$$$$$$@  ..      ",
"    @$$$$$$$$$$$$$$@@.  ..      ",
"     @@@$$$$$$$$$@@             ",
"        @@@@@@@@@@              ",
"        @;@ @;@                 ",
"        @&@@;&;@>>              ",
"  ..  >>@&@@@@@>>>        ..    ",
"  ..  >@;&&;@>>>          ..    ",
"**%%  >>@@@@>>..                ",
"  ..  .>>>>   ..                ",
"                                ",
"                                "};
