/* XPM */
static char * wall_xpm[] = {
"32 32 7 1",
" 	c #96C534",
".	c #6B8D25",
"+	c #2F3253",
"@	c #39995B",
"#	c #52BE78",
"$	c #D22020",
"%	c #976F5E",
"                                ",
"           ..                   ",
"       ++  ..          ++.      ",
"      +@@+   ..       +@@+      ",
"    .+@##@+  ..     .+@##@+     ",
"    .+@##@+         .+@##@+     ",
"    +@@@@@@+        +@@@@@@+..  ",
"    +@#@@#@+        +@#@@#@+..  ",
"    +@####@+   ..   +@###$@+    ",
"   +@@@##@@@+  ..  +@@@##@@@+   ",
"   +@@@##@@@+      +@@@##@@@+   ",
"  +@@#@@@@#@@+    +@@$@@@@#@@+  ",
"  +@##@##@##@+  ..+@#$$##@##@+  ",
" +@@########@@+ .+@@########$@+ ",
" +@@#@####@#@@+  +@@#@####@$$@+ ",
"+@#@@@####@@@#@++@$@@@####@@@#@+",
"+@##@@@##@@@##@++@$$@@@##@@@##@+",
"+@@##@@@@@@##@@++@@##@@@@@@##@@+",
"+@#####@@#####@++@#####@@###$#@+",
"+@@#@######@#@@++@@#@######$$@@+",
" +@@@######@@@+. +@@@######@@@+ ",
" +@@##@##@##@@+. +@@$#@##@##@@+ ",
"  +@@@@##@@@@+    +@$$@#$@@@@+  ",
"   +@@@@@@@@+      +@@@@@@@@+   ",
"    ++@@@@++        ++@@@@++    ",
"    +%++++%+        +%++++%+    ",
"  .+%%%%%%%%+      +%%%%%%%%+   ",
"  .+%+%%%%+%+      +%+%%%%+%+   ",
"  ..+++%%+++  ..    +++%%+++    ",
"  ..  .++     ..       ++       ",
"                                ",
"                                "};
